<mxfile host="app.diagrams.net" agent="Mozilla/5.0 (Windows NT 10.0; Win64; x64) AppleWebKit/537.36 (KHTML, like Gecko) Chrome/131.0.0.0 Safari/537.36 Edg/131.0.0.0" version="25.0.3">
  <diagram name="Page-1" id="1_JfDKdxJxd2h8yMRCH7">
    <mxGraphModel dx="312" dy="461" grid="1" gridSize="10" guides="1" tooltips="1" connect="1" arrows="1" fold="1" page="1" pageScale="1" pageWidth="850" pageHeight="1100" math="0" shadow="0">
      <root>
        <mxCell id="0" />
        <mxCell id="1" parent="0" />
        <mxCell id="53KPg1Qkq4qB-LafVyjO-3" style="edgeStyle=orthogonalEdgeStyle;rounded=0;orthogonalLoop=1;jettySize=auto;html=1;" edge="1" parent="1" source="53KPg1Qkq4qB-LafVyjO-1" target="53KPg1Qkq4qB-LafVyjO-2">
          <mxGeometry relative="1" as="geometry" />
        </mxCell>
        <mxCell id="53KPg1Qkq4qB-LafVyjO-1" value="start" style="ellipse;whiteSpace=wrap;html=1;" vertex="1" parent="1">
          <mxGeometry x="200" y="40" width="120" height="80" as="geometry" />
        </mxCell>
        <mxCell id="53KPg1Qkq4qB-LafVyjO-8" value="" style="edgeStyle=orthogonalEdgeStyle;rounded=0;orthogonalLoop=1;jettySize=auto;html=1;" edge="1" parent="1" source="53KPg1Qkq4qB-LafVyjO-2" target="53KPg1Qkq4qB-LafVyjO-6">
          <mxGeometry relative="1" as="geometry" />
        </mxCell>
        <mxCell id="53KPg1Qkq4qB-LafVyjO-2" value="nhập n" style="rounded=0;whiteSpace=wrap;html=1;" vertex="1" parent="1">
          <mxGeometry x="200" y="150" width="120" height="60" as="geometry" />
        </mxCell>
        <mxCell id="53KPg1Qkq4qB-LafVyjO-12" value="true" style="edgeStyle=orthogonalEdgeStyle;rounded=0;orthogonalLoop=1;jettySize=auto;html=1;" edge="1" parent="1" source="53KPg1Qkq4qB-LafVyjO-5" target="53KPg1Qkq4qB-LafVyjO-10">
          <mxGeometry y="10" relative="1" as="geometry">
            <Array as="points">
              <mxPoint x="440" y="380" />
            </Array>
            <mxPoint as="offset" />
          </mxGeometry>
        </mxCell>
        <mxCell id="53KPg1Qkq4qB-LafVyjO-5" value="n chia hết cho i" style="rhombus;whiteSpace=wrap;html=1;" vertex="1" parent="1">
          <mxGeometry x="220" y="340" width="80" height="80" as="geometry" />
        </mxCell>
        <mxCell id="53KPg1Qkq4qB-LafVyjO-9" value="" style="edgeStyle=orthogonalEdgeStyle;rounded=0;orthogonalLoop=1;jettySize=auto;html=1;" edge="1" parent="1" source="53KPg1Qkq4qB-LafVyjO-6" target="53KPg1Qkq4qB-LafVyjO-5">
          <mxGeometry relative="1" as="geometry" />
        </mxCell>
        <mxCell id="53KPg1Qkq4qB-LafVyjO-6" value="biến i chạy từ 1 đến n" style="rounded=0;whiteSpace=wrap;html=1;" vertex="1" parent="1">
          <mxGeometry x="200" y="250" width="120" height="60" as="geometry" />
        </mxCell>
        <mxCell id="53KPg1Qkq4qB-LafVyjO-15" style="edgeStyle=orthogonalEdgeStyle;rounded=0;orthogonalLoop=1;jettySize=auto;html=1;" edge="1" parent="1" source="53KPg1Qkq4qB-LafVyjO-10" target="53KPg1Qkq4qB-LafVyjO-13">
          <mxGeometry relative="1" as="geometry">
            <Array as="points">
              <mxPoint x="410" y="560" />
            </Array>
          </mxGeometry>
        </mxCell>
        <mxCell id="53KPg1Qkq4qB-LafVyjO-10" value="uoc cua (n) la:" style="shape=parallelogram;perimeter=parallelogramPerimeter;whiteSpace=wrap;html=1;fixedSize=1;" vertex="1" parent="1">
          <mxGeometry x="360" y="410" width="120" height="60" as="geometry" />
        </mxCell>
        <mxCell id="53KPg1Qkq4qB-LafVyjO-13" value="end" style="ellipse;whiteSpace=wrap;html=1;" vertex="1" parent="1">
          <mxGeometry x="210" y="520" width="120" height="80" as="geometry" />
        </mxCell>
        <mxCell id="53KPg1Qkq4qB-LafVyjO-17" value="false" style="edgeStyle=orthogonalEdgeStyle;rounded=0;orthogonalLoop=1;jettySize=auto;html=1;entryX=0.417;entryY=-0.015;entryDx=0;entryDy=0;entryPerimeter=0;" edge="1" parent="1" source="53KPg1Qkq4qB-LafVyjO-5" target="53KPg1Qkq4qB-LafVyjO-13">
          <mxGeometry relative="1" as="geometry" />
        </mxCell>
      </root>
    </mxGraphModel>
  </diagram>
</mxfile>
